<?xml version="1.0" encoding="UTF-8"?>
<svg id="Layer_1" xmlns="http://www.w3.org/2000/svg" version="1.1" viewBox="0 0 565 150">
  <!-- Generator: Adobe Illustrator 29.8.1, SVG Export Plug-In . SVG Version: 2.1.1 Build 2)  -->
  <defs>
    <style>
      .st0 {
        fill: #010101;
      }
    </style>
  </defs>
  <path class="st0" d="M175.46,104.46c0,18.03-9.58,29.69-24.4,29.69s-24.79-11.65-24.79-29.69v-52.83h-13.43v52.83c0,25.83,15.36,43.18,38.22,43.18s37.83-17.35,37.83-43.18v-52.83h-13.43v52.83h0Z"/>
  <path class="st0" d="M218.67,93.9v-29.46h28.43c10.09,0,16.61,5.78,16.61,14.73s-6.52,14.73-16.61,14.73h-28.43ZM277.14,79.17c0-16.47-12.07-27.54-30.03-27.54h-41.86v94.24h13.43v-39.02h13.67l33.26,39.02h17.04l-33.68-39.05c16.92-.75,28.17-11.67,28.17-27.65"/>
  <path class="st0" d="M335.02,93.81l-19-4.49c-8.32-1.8-11.87-5.4-11.87-12.05,0-8.89,7.3-14.87,18.17-14.87s19.22,6.43,21.05,16.78l.29,1.65,13.38-3.19-.3-1.49c-3.24-16.21-16.33-26.28-34.16-26.28-19.44,0-32.5,11.12-32.5,27.68,0,13.05,7.45,21.39,22.15,24.79l19.6,4.48c9.68,2.29,12.94,5.51,12.94,12.74,0,9.51-7.51,15.41-19.59,15.41-13.19,0-22.12-6.97-23.9-18.64l-.25-1.66-13.84,2.96.17,1.43c2.09,17.36,16.58,28.58,36.91,28.58s33.93-11.24,33.93-28.63c-.01-13.26-7.81-21.74-23.18-25.2"/>
  <path class="st0" d="M433.59,104.46c0,18.03-9.58,29.69-24.4,29.69s-24.79-11.65-24.79-29.69v-52.83h-13.43v52.83c0,25.83,15.36,43.18,38.22,43.18s37.83-17.35,37.83-43.18v-52.83h-13.43v52.83h0Z"/>
  <rect class="st0" x="464.96" y="51.63" width="13.43" height="94.24"/>
  <polygon class="st0" points="491.01 51.63 491.01 64.44 520.11 64.44 520.11 145.88 533.67 145.88 533.67 64.44 562.64 64.44 562.64 51.63 491.01 51.63"/>
  <path class="st0" d="M89.4,81.79c-1.08,11.9-9.97,20.89-23.78,24.05-16.2,3.71-29.59-1.85-37.08-9.67,11.62-27.39,27.91-36.94,41.41-35.56,11.68,1.18,20.4,10.69,19.45,21.18M71.25,47.83c-8.74-.89-25.74.62-41.54,20.78-3.27,4.17-6.27,8.87-9,14.09-2.9-8.22-3.08-16.65-.47-24.78,3.95-12.32,14.26-23.3,27.75-29.7l-3.43,13.37,11.22,2.88,8.61-33.51L30.94,2.35l-2.89,11.22,13.52,3.48C25.15,25.08,13.01,38.4,8.01,54.01c-4.69,14.64-2.68,29.84,5.8,43.96.05.08.09.15.14.23-4.9,13.51-8.48,29.48-10.71,47.8h12.94c1.82-14.27,4.43-26.47,7.62-36.78,11.66,9.18,28.32,12.89,44.68,9.14,19.2-4.4,32.11-17.96,33.7-35.4,1.59-17.47-12.28-33.23-30.93-35.13"/>
</svg>