<svg xmlns="http://www.w3.org/2000/svg" viewBox="0 0 1200 200" fill="currentColor">
  <path d="M40 160 L40 40 C40 40 60 20 100 20 C140 20 160 40 160 70 C160 100 140 120 100 120 L80 120 L80 160 L40 160 M80 60 L80 90 L100 90 C115 90 120 85 120 75 C120 65 115 60 100 60 L80 60 Z"/>
  <path d="M200 160 L200 40 L240 40 L240 90 C240 90 245 70 270 70 C295 70 300 90 300 90 L300 40 L340 40 L340 160 L300 160 L300 110 C300 110 295 100 280 100 C265 100 260 110 260 110 L260 160 L200 160 Z"/>
  <path d="M380 160 L380 40 L460 40 C490 40 510 60 510 90 C510 120 490 140 460 140 L420 140 L420 160 L380 160 M420 70 L420 110 L450 110 C465 110 470 100 470 90 C470 80 465 70 450 70 L420 70 Z"/>
  <path d="M550 160 L550 40 L620 40 C650 40 670 60 670 90 C670 120 650 140 620 140 L590 140 L590 160 L550 160 M590 70 L590 110 L615 110 C630 110 635 100 635 90 C635 80 630 70 615 70 L590 70 Z"/>
  <path d="M700 160 L700 100 C700 70 720 60 750 60 C780 60 800 70 800 70 L800 40 L840 40 L840 160 L800 160 L800 100 C800 100 795 90 760 90 C745 90 740 95 740 110 L740 160 L700 160 Z"/>
  <path d="M880 160 L880 40 L950 40 C980 40 1000 60 1000 90 C1000 110 990 125 970 130 L1010 160 L960 160 L930 135 L920 135 L920 160 L880 160 M920 70 L920 110 L945 110 C960 110 965 100 965 90 C965 80 960 70 945 70 L920 70 Z"/>
  <path d="M1040 160 L1040 100 C1040 70 1060 60 1090 60 C1120 60 1140 70 1140 100 L1140 160 L1100 160 L1100 110 C1100 100 1095 90 1080 90 C1065 90 1060 100 1060 110 L1060 160 L1040 160 Z"/>
  <path d="M1180 50 L1180 40 L1160 40 L1160 10 L1120 10 L1120 40 L1100 40 L1100 70 L1120 70 L1120 160 L1160 160 L1160 70 L1180 70 L1180 50 Z"/>
  <g transform="translate(-10, 0)">
    <path d="M65 25 L50 10 Q65 5 80 20 M80 10 L95 25" stroke="currentColor" stroke-width="8" fill="none" stroke-linecap="round"/>
  </g>
</svg>
